<svg id="Layer_1" data-name="Layer 1" xmlns="http://www.w3.org/2000/svg" viewBox="0 0 1278.88 1330.55"><defs><style>.cls-1{fill:#fff;}.cls-2{font-size:100px;letter-spacing:0.1em;}.cls-2,.cls-4,.cls-5{fill:#1c0b00;}.cls-2,.cls-5{font-family:Mulish-Bold, Mulish;font-weight:700;}.cls-3{letter-spacing:0.09em;}.cls-5{font-size:72px;}</style></defs><path class="cls-1" d="M640.39,520.53a57.37,57.37,0,0,0,3.26,6.63c.29.57.67,1.09,1,1.66,1.52,6,2.16,17.34,2.4,29a34.83,34.83,0,0,0,28.45,33.52c23.15,4.29,54.31,11.33,68.68,20.19a13,13,0,0,1,1.54,1.14l3.81,3.25a1.86,1.86,0,0,0,.49.42l-.07.07s.05,0,.08-.06l.07.06-.06-.07a1.86,1.86,0,0,0,.49-.42l3.8-3.25a12.36,12.36,0,0,1,1.55-1.14c14.37-8.86,45.52-15.9,68.67-20.19A34.82,34.82,0,0,0,853,557.8c.25-11.64.89-23,2.4-29,.31-.57.68-1.09,1-1.66a59,59,0,0,0,3.25-6.63,101.68,101.68,0,0,0,4.51-14,164.71,164.71,0,0,0,4.4-28.88,165.36,165.36,0,0,1-5.92,28.46A95,95,0,0,1,852.22,529c-14,9.06-45.82,16.26-69.34,20.62a34.82,34.82,0,0,0-28.45,33.51c-.3,14.21-1.16,28.08-3.53,32.21-.33.34-.63.67-.9,1-.28-.34-.58-.67-.91-1-2.36-4.13-3.22-18-3.52-32.21a34.83,34.83,0,0,0-28.45-33.51C693.6,545.22,661.82,538,647.78,529a94.66,94.66,0,0,1-10.37-22.87,164.42,164.42,0,0,1-5.92-28.46,165.63,165.63,0,0,0,4.39,28.88A103.06,103.06,0,0,0,640.39,520.53Z" transform="translate(-110.56 -84.72)"/><path class="cls-1" d="M852.22,594.77c-14,9.06-45.82,16.27-69.34,20.62a34.83,34.83,0,0,0-28.45,33.52c-.3,14.2-1.16,28.08-3.53,32.21-.33.33-.63.67-.9,1-.28-.33-.58-.67-.91-1-2.36-4.13-3.22-18-3.52-32.21a34.84,34.84,0,0,0-28.45-33.52c-23.53-4.35-55.3-11.56-69.34-20.62a94.49,94.49,0,0,1-10.37-22.87,164.42,164.42,0,0,1-5.92-28.46,165.6,165.6,0,0,0,4.39,28.89,103.37,103.37,0,0,0,4.51,14,57.51,57.51,0,0,0,3.26,6.64c.29.57.67,1.09,1,1.65,1.52,6,2.16,17.34,2.4,29a34.82,34.82,0,0,0,28.45,33.51c23.15,4.29,54.31,11.33,68.68,20.19a13.11,13.11,0,0,1,1.54,1.15l3.81,3.25a2.33,2.33,0,0,0,.49.42l-.07.07.08-.07.07.07-.06-.07a2.33,2.33,0,0,0,.49-.42l3.8-3.25a12.44,12.44,0,0,1,1.55-1.15c14.37-8.86,45.52-15.9,68.67-20.19A34.81,34.81,0,0,0,853,623.62c.25-11.65.89-23,2.4-29,.31-.56.68-1.08,1-1.65a59.12,59.12,0,0,0,3.25-6.64,102,102,0,0,0,4.51-14,164.68,164.68,0,0,0,4.4-28.89,165.36,165.36,0,0,1-5.92,28.46A94.87,94.87,0,0,1,852.22,594.77Z" transform="translate(-110.56 -84.72)"/><path class="cls-1" d="M852.22,660.58c-14,9.07-45.82,16.27-69.34,20.63a34.81,34.81,0,0,0-28.45,33.51c-.3,14.21-1.16,28.08-3.53,32.21a11.86,11.86,0,0,0-.9,1c-.28-.34-.58-.68-.91-1-2.36-4.13-3.22-18-3.52-32.21a34.82,34.82,0,0,0-28.45-33.51c-23.53-4.36-55.3-11.56-69.34-20.63a94.31,94.31,0,0,1-10.37-22.87,164,164,0,0,1-5.92-28.46,165.6,165.6,0,0,0,4.39,28.89,103.37,103.37,0,0,0,4.51,14,57.51,57.51,0,0,0,3.26,6.64c.29.57.67,1.09,1,1.65,1.52,6,2.16,17.35,2.4,29A34.84,34.84,0,0,0,675.47,723c23.15,4.28,54.31,11.33,68.68,20.19a13,13,0,0,1,1.54,1.14l3.81,3.25a2.07,2.07,0,0,0,.49.42l-.07.07s.05,0,.08-.06l.07.06L750,748a2.07,2.07,0,0,0,.49-.42l3.8-3.25a12.36,12.36,0,0,1,1.55-1.14c14.37-8.86,45.52-15.91,68.67-20.19A34.83,34.83,0,0,0,853,689.43c.25-11.64.89-23,2.4-29,.31-.56.68-1.08,1-1.65a59.12,59.12,0,0,0,3.25-6.64,102,102,0,0,0,4.51-14,164.68,164.68,0,0,0,4.4-28.89,165,165,0,0,1-5.92,28.46A94.7,94.7,0,0,1,852.22,660.58Z" transform="translate(-110.56 -84.72)"/><path class="cls-1" d="M852.22,726.4c-14,9.06-45.82,16.27-69.34,20.62a34.82,34.82,0,0,0-28.45,33.52c-.3,14.2-1.16,28.08-3.53,32.2-.33.34-.63.67-.9,1-.28-.34-.58-.67-.91-1-2.36-4.12-3.22-18-3.52-32.2A34.83,34.83,0,0,0,717.12,747c-23.52-4.35-55.3-11.56-69.34-20.62a94.49,94.49,0,0,1-10.37-22.87,164.42,164.42,0,0,1-5.92-28.46A165.49,165.49,0,0,0,635.88,704a103.06,103.06,0,0,0,4.51,14,58.32,58.32,0,0,0,3.26,6.64c.29.56.67,1.09,1,1.65,1.52,6,2.16,17.34,2.4,29a34.83,34.83,0,0,0,28.45,33.51c23.15,4.29,54.31,11.33,68.68,20.19a13,13,0,0,1,1.54,1.14l3.81,3.26a2,2,0,0,0,.49.41l-.07.08.08-.07.07.07-.06-.08a2,2,0,0,0,.49-.41l3.8-3.26a12.36,12.36,0,0,1,1.55-1.14c14.37-8.86,45.52-15.9,68.67-20.19A34.82,34.82,0,0,0,853,755.25c.25-11.65.89-23,2.4-29,.31-.56.68-1.09,1-1.65A60,60,0,0,0,859.6,718a101.68,101.68,0,0,0,4.51-14,164.57,164.57,0,0,0,4.4-28.88,165.36,165.36,0,0,1-5.92,28.46A94.87,94.87,0,0,1,852.22,726.4Z" transform="translate(-110.56 -84.72)"/><path class="cls-1" d="M657,453.79a54.11,54.11,0,0,0,2.16,6.52c.2.56.48,1.09.69,1.65.63,5.72-.22,16.24-1.46,27a32.36,32.36,0,0,0,22,34.46c20.77,6.88,48.56,17.3,60.67,27.28a11.61,11.61,0,0,1,1.28,1.25l3.09,3.47a1.78,1.78,0,0,0,.4.45l-.07.06.08,0v0c-.21-.35-.45-.69-.71-1-1.65-4.1-.68-17,.84-30.1a32.38,32.38,0,0,0-22-34.46c-21.1-7-49.45-17.64-61.22-27.77a88.17,88.17,0,0,1-6.66-22.36,151.64,151.64,0,0,1-1.84-26.95,153,153,0,0,0,.38,27.15A97.2,97.2,0,0,0,657,453.79Z" transform="translate(-110.56 -84.72)"/><path class="cls-1" d="M754,524.71c1.52,13.12,2.48,26,.83,30.1-.26.35-.49.69-.7,1v0l.08,0-.07-.06a1.76,1.76,0,0,0,.39-.45l3.1-3.47a10.8,10.8,0,0,1,1.28-1.25c12.1-10,39.9-20.4,60.67-27.28a32.39,32.39,0,0,0,22-34.46c-1.25-10.75-2.1-21.27-1.46-27,.21-.56.49-1.09.69-1.65a52.36,52.36,0,0,0,2.15-6.52,94.32,94.32,0,0,0,2.38-13.47,153,153,0,0,0,.39-27.15,153.54,153.54,0,0,1-1.84,26.95,88.17,88.17,0,0,1-6.66,22.36c-11.78,10.13-40.12,20.78-61.23,27.77A32.36,32.36,0,0,0,754,524.71Z" transform="translate(-110.56 -84.72)"/><path class="cls-1" d="M721.71,476.93C745,479.4,750,506,750,506s.08-.09,0,0,5-26.61,28.28-29.08c0,0,12.35-41.35-27.14-82.05L750,339.13l-1.15,55.75C709.37,435.58,721.71,476.93,721.71,476.93Z" transform="translate(-110.56 -84.72)"/><path class="cls-1" d="M902.88,593.11a43.51,43.51,0,0,0,2.45,5c.22.43.5.82.73,1.24,1.14,4.53,1.62,13,1.81,21.82a26.21,26.21,0,0,0,21.41,25.22c17.41,3.23,40.86,8.53,51.67,15.2a9,9,0,0,1,1.17.85l2.86,2.45a1.54,1.54,0,0,0,.37.32l-.05,0,.06,0,0,0,0,0a1.51,1.51,0,0,0,.36-.32l2.87-2.45a9.58,9.58,0,0,1,1.16-.85c10.81-6.67,34.26-12,51.68-15.2a26.21,26.21,0,0,0,21.41-25.22c.19-8.76.67-17.29,1.81-21.82.23-.42.51-.81.73-1.24a43.51,43.51,0,0,0,2.45-5,78.06,78.06,0,0,0,3.4-10.55,124.28,124.28,0,0,0,3.3-21.74,124.21,124.21,0,0,1-4.45,21.42,71.36,71.36,0,0,1-7.81,17.21c-10.56,6.82-34.48,12.24-52.18,15.52a26.22,26.22,0,0,0-21.41,25.22c-.23,10.69-.87,21.13-2.65,24.24a9.51,9.51,0,0,0-.68.76c-.21-.26-.44-.51-.68-.76-1.78-3.11-2.43-13.55-2.65-24.24A26.23,26.23,0,0,0,960.61,615c-17.7-3.28-41.61-8.7-52.18-15.52a71.33,71.33,0,0,1-7.8-17.21,123.3,123.3,0,0,1-4.46-21.42,125.25,125.25,0,0,0,3.31,21.74A78.06,78.06,0,0,0,902.88,593.11Z" transform="translate(-110.56 -84.72)"/><path class="cls-1" d="M1062.28,649c-10.56,6.82-34.48,12.24-52.18,15.52a26.21,26.21,0,0,0-21.41,25.22c-.23,10.69-.87,21.13-2.65,24.24a9.51,9.51,0,0,0-.68.76c-.21-.26-.44-.51-.68-.76-1.78-3.11-2.43-13.55-2.65-24.24a26.22,26.22,0,0,0-21.42-25.22c-17.7-3.28-41.61-8.7-52.18-15.52a71.33,71.33,0,0,1-7.8-17.21,123.49,123.49,0,0,1-4.46-21.42,125.39,125.39,0,0,0,3.31,21.74,77.48,77.48,0,0,0,3.4,10.54,42.86,42.86,0,0,0,2.45,5c.22.43.5.82.73,1.24,1.14,4.53,1.62,13,1.81,21.82a26.21,26.21,0,0,0,21.41,25.22c17.41,3.23,40.86,8.52,51.67,15.19a10.07,10.07,0,0,1,1.17.86l2.86,2.45a1.54,1.54,0,0,0,.37.32l-.05,0,.06,0,0,0,0,0a1.51,1.51,0,0,0,.36-.32L988.6,712a10.87,10.87,0,0,1,1.16-.86c10.81-6.67,34.26-12,51.68-15.19a26.21,26.21,0,0,0,21.41-25.22c.19-8.77.67-17.29,1.81-21.82.23-.42.51-.81.73-1.24a42.86,42.86,0,0,0,2.45-5,77.48,77.48,0,0,0,3.4-10.54,124.42,124.42,0,0,0,3.3-21.74,124.41,124.41,0,0,1-4.45,21.42A71.36,71.36,0,0,1,1062.28,649Z" transform="translate(-110.56 -84.72)"/><path class="cls-1" d="M1062.28,698.5c-10.56,6.83-34.48,12.25-52.18,15.53a26.21,26.21,0,0,0-21.41,25.22c-.23,10.69-.87,21.13-2.65,24.24a9.51,9.51,0,0,0-.68.76c-.21-.26-.44-.51-.68-.76-1.78-3.11-2.43-13.55-2.65-24.24A26.22,26.22,0,0,0,960.61,714c-17.7-3.28-41.61-8.7-52.18-15.53a71.26,71.26,0,0,1-7.8-17.2,123.49,123.49,0,0,1-4.46-21.42,125.39,125.39,0,0,0,3.31,21.74,77.93,77.93,0,0,0,3.4,10.54,42.86,42.86,0,0,0,2.45,5c.22.43.5.82.73,1.24,1.14,4.53,1.62,13.05,1.81,21.82a26.21,26.21,0,0,0,21.41,25.22c17.41,3.22,40.86,8.52,51.67,15.19a10.07,10.07,0,0,1,1.17.86l2.86,2.45a1.49,1.49,0,0,0,.37.31l-.05.06.06,0,0,0,0-.06a1.45,1.45,0,0,0,.36-.31l2.87-2.45a10.87,10.87,0,0,1,1.16-.86c10.81-6.67,34.26-12,51.68-15.19a26.21,26.21,0,0,0,21.41-25.22c.19-8.77.67-17.29,1.81-21.82.23-.42.51-.81.73-1.24a42.86,42.86,0,0,0,2.45-5,77.93,77.93,0,0,0,3.4-10.54,124.42,124.42,0,0,0,3.3-21.74,124.41,124.41,0,0,1-4.45,21.42A71.29,71.29,0,0,1,1062.28,698.5Z" transform="translate(-110.56 -84.72)"/><path class="cls-1" d="M1062.28,748c-10.56,6.82-34.48,12.25-52.18,15.52a26.22,26.22,0,0,0-21.41,25.23c-.23,10.69-.87,21.13-2.65,24.23-.25.25-.47.51-.68.76-.21-.25-.44-.51-.68-.76-1.78-3.1-2.43-13.54-2.65-24.23a26.23,26.23,0,0,0-21.42-25.23c-17.7-3.27-41.61-8.7-52.18-15.52a71.15,71.15,0,0,1-7.8-17.21,123.38,123.38,0,0,1-4.46-21.41,125.28,125.28,0,0,0,3.31,21.73,78.06,78.06,0,0,0,3.4,10.55,44.48,44.48,0,0,0,2.45,5c.22.42.5.82.73,1.24,1.14,4.52,1.62,13.05,1.81,21.81A26.21,26.21,0,0,0,929.28,795c17.41,3.22,40.86,8.52,51.67,15.19a9,9,0,0,1,1.17.86l2.86,2.45a1.49,1.49,0,0,0,.37.31l-.05.06.06-.05,0,.05,0-.06a1.45,1.45,0,0,0,.36-.31L988.6,811a9.66,9.66,0,0,1,1.16-.86c10.81-6.67,34.26-12,51.68-15.19a26.21,26.21,0,0,0,21.41-25.23c.19-8.76.67-17.29,1.81-21.81.23-.42.51-.82.73-1.24a44.48,44.48,0,0,0,2.45-5,78.06,78.06,0,0,0,3.4-10.55,124.31,124.31,0,0,0,3.3-21.73,124.3,124.3,0,0,1-4.45,21.41A71.18,71.18,0,0,1,1062.28,748Z" transform="translate(-110.56 -84.72)"/><path class="cls-1" d="M915.4,542.88a39.78,39.78,0,0,0,1.63,4.91c.15.42.36.82.51,1.24.48,4.31-.16,12.22-1.09,20.31A24.36,24.36,0,0,0,933,595.28c15.63,5.17,36.54,13,45.65,20.53a8.53,8.53,0,0,1,1,.93l2.32,2.62a2.07,2.07,0,0,0,.3.34l-.05,0,.06,0h0c-.16-.26-.33-.52-.53-.79-1.24-3.08-.52-12.78.63-22.65a24.38,24.38,0,0,0-16.52-25.93c-15.89-5.26-37.22-13.28-46.08-20.89a66.2,66.2,0,0,1-5-16.84,115.38,115.38,0,0,1-1.39-20.28,116.21,116.21,0,0,0,.29,20.43A73.24,73.24,0,0,0,915.4,542.88Z" transform="translate(-110.56 -84.72)"/><path class="cls-1" d="M988.4,596.25c1.14,9.87,1.87,19.57.63,22.65-.2.27-.37.53-.53.79h0l.06,0-.06,0a1.43,1.43,0,0,0,.3-.34l2.33-2.62a9.35,9.35,0,0,1,1-.93c9.11-7.51,30-15.36,45.66-20.53a24.36,24.36,0,0,0,16.52-25.94c-.94-8.09-1.58-16-1.1-20.31.16-.42.37-.82.52-1.24a39.74,39.74,0,0,0,1.62-4.91,70.38,70.38,0,0,0,1.79-10.14,115.26,115.26,0,0,0,.29-20.43,114.42,114.42,0,0,1-1.38,20.28,66.61,66.61,0,0,1-5,16.84c-8.87,7.61-30.2,15.63-46.08,20.89A24.35,24.35,0,0,0,988.4,596.25Z" transform="translate(-110.56 -84.72)"/><path class="cls-1" d="M964.07,560.29c17.5,1.87,21.29,21.89,21.29,21.89s.06-.06,0,0,3.79-20,21.28-21.89c0,0,9.3-31.11-20.42-61.74l-.86-42-.86,42C954.78,529.18,964.07,560.29,964.07,560.29Z" transform="translate(-110.56 -84.72)"/><path class="cls-1" d="M432.16,593.11a45.15,45.15,0,0,0,2.44,5c.22.43.51.82.74,1.24,1.14,4.53,1.62,13,1.8,21.82a26.22,26.22,0,0,0,21.42,25.22c17.41,3.23,40.86,8.53,51.67,15.2a9,9,0,0,1,1.17.85l2.86,2.45a1.54,1.54,0,0,0,.37.32l0,0,.06,0s0,0,.05,0l0,0a1.73,1.73,0,0,0,.36-.32l2.87-2.45a9.58,9.58,0,0,1,1.16-.85c10.81-6.67,34.26-12,51.68-15.2a26.21,26.21,0,0,0,21.41-25.22c.19-8.76.67-17.29,1.81-21.82.23-.42.51-.81.73-1.24a43.51,43.51,0,0,0,2.45-5,76.63,76.63,0,0,0,3.39-10.55,123.36,123.36,0,0,0,3.31-21.74,124.21,124.21,0,0,1-4.45,21.42,71.36,71.36,0,0,1-7.81,17.21C581,606.27,557.08,611.69,539.38,615A26.21,26.21,0,0,0,518,640.19c-.23,10.69-.87,21.13-2.65,24.24a9.51,9.51,0,0,0-.68.76c-.21-.26-.44-.51-.68-.76-1.78-3.11-2.43-13.55-2.66-24.24A26.21,26.21,0,0,0,489.89,615c-17.7-3.28-41.61-8.7-52.18-15.52a71.33,71.33,0,0,1-7.8-17.21,123.3,123.3,0,0,1-4.46-21.42,125.25,125.25,0,0,0,3.31,21.74A76.68,76.68,0,0,0,432.16,593.11Z" transform="translate(-110.56 -84.72)"/><path class="cls-1" d="M591.56,649c-10.56,6.82-34.48,12.24-52.18,15.52A26.2,26.2,0,0,0,518,689.72c-.23,10.69-.87,21.13-2.65,24.24a9.51,9.51,0,0,0-.68.76c-.21-.26-.44-.51-.68-.76-1.78-3.11-2.43-13.55-2.66-24.24a26.2,26.2,0,0,0-21.41-25.22c-17.7-3.28-41.61-8.7-52.18-15.52a71.33,71.33,0,0,1-7.8-17.21,123.49,123.49,0,0,1-4.46-21.42,125.39,125.39,0,0,0,3.31,21.74,76.11,76.11,0,0,0,3.4,10.54,44.45,44.45,0,0,0,2.44,5c.22.43.51.82.74,1.24,1.14,4.53,1.62,13,1.8,21.82a26.22,26.22,0,0,0,21.42,25.22c17.41,3.23,40.86,8.52,51.67,15.19a10.07,10.07,0,0,1,1.17.86l2.86,2.45a1.54,1.54,0,0,0,.37.32l0,0,.06,0s0,0,.05,0l0,0a1.73,1.73,0,0,0,.36-.32l2.87-2.45a10.87,10.87,0,0,1,1.16-.86c10.81-6.67,34.26-12,51.68-15.19a26.21,26.21,0,0,0,21.41-25.22c.19-8.77.67-17.29,1.81-21.82.23-.42.51-.81.73-1.24a42.86,42.86,0,0,0,2.45-5,76.07,76.07,0,0,0,3.39-10.54,123.5,123.5,0,0,0,3.31-21.74,124.41,124.41,0,0,1-4.45,21.42A71.36,71.36,0,0,1,591.56,649Z" transform="translate(-110.56 -84.72)"/><path class="cls-1" d="M591.56,698.5C581,705.33,557.08,710.75,539.38,714A26.2,26.2,0,0,0,518,739.25c-.23,10.69-.87,21.13-2.65,24.24a9.51,9.51,0,0,0-.68.76c-.21-.26-.44-.51-.68-.76-1.78-3.11-2.43-13.55-2.66-24.24A26.2,26.2,0,0,0,489.89,714c-17.7-3.28-41.61-8.7-52.18-15.53a71.26,71.26,0,0,1-7.8-17.2,123.49,123.49,0,0,1-4.46-21.42,125.39,125.39,0,0,0,3.31,21.74,76.55,76.55,0,0,0,3.4,10.54,44.45,44.45,0,0,0,2.44,5c.22.43.51.82.74,1.24,1.14,4.53,1.62,13.05,1.8,21.82a26.22,26.22,0,0,0,21.42,25.22c17.41,3.22,40.86,8.52,51.67,15.19a10.07,10.07,0,0,1,1.17.86l2.86,2.45a1.49,1.49,0,0,0,.37.31l0,.06.06,0s0,0,.05,0l0-.06a1.66,1.66,0,0,0,.36-.31l2.87-2.45a10.87,10.87,0,0,1,1.16-.86c10.81-6.67,34.26-12,51.68-15.19a26.21,26.21,0,0,0,21.41-25.22c.19-8.77.67-17.29,1.81-21.82.23-.42.51-.81.73-1.24a42.86,42.86,0,0,0,2.45-5,76.5,76.5,0,0,0,3.39-10.54,123.5,123.5,0,0,0,3.31-21.74,124.41,124.41,0,0,1-4.45,21.42A71.29,71.29,0,0,1,591.56,698.5Z" transform="translate(-110.56 -84.72)"/><path class="cls-1" d="M591.56,748c-10.56,6.82-34.48,12.25-52.18,15.52A26.21,26.21,0,0,0,518,788.78c-.23,10.69-.87,21.13-2.65,24.23-.25.25-.47.51-.68.76-.21-.25-.44-.51-.68-.76-1.78-3.1-2.43-13.54-2.66-24.23a26.21,26.21,0,0,0-21.41-25.23c-17.7-3.27-41.61-8.7-52.18-15.52a71.15,71.15,0,0,1-7.8-17.21,123.38,123.38,0,0,1-4.46-21.41,125.28,125.28,0,0,0,3.31,21.73,76.68,76.68,0,0,0,3.4,10.55,46.19,46.19,0,0,0,2.44,5c.22.42.51.82.74,1.24,1.14,4.52,1.62,13.05,1.8,21.81A26.22,26.22,0,0,0,458.56,795c17.41,3.22,40.86,8.52,51.67,15.19a9,9,0,0,1,1.17.86l2.86,2.45a1.49,1.49,0,0,0,.37.31l0,.06.06-.05s0,0,.05.05l0-.06a1.66,1.66,0,0,0,.36-.31l2.87-2.45a9.66,9.66,0,0,1,1.16-.86c10.81-6.67,34.26-12,51.68-15.19a26.21,26.21,0,0,0,21.41-25.23c.19-8.76.67-17.29,1.81-21.81.23-.42.51-.82.73-1.24a44.48,44.48,0,0,0,2.45-5,76.63,76.63,0,0,0,3.39-10.55,123.39,123.39,0,0,0,3.31-21.73,124.3,124.3,0,0,1-4.45,21.41A71.18,71.18,0,0,1,591.56,748Z" transform="translate(-110.56 -84.72)"/><path class="cls-1" d="M444.68,542.88a39.78,39.78,0,0,0,1.63,4.91c.15.42.36.82.51,1.24.48,4.31-.16,12.22-1.09,20.31a24.36,24.36,0,0,0,16.52,25.94c15.63,5.17,36.54,13,45.65,20.53a8.53,8.53,0,0,1,1,.93l2.32,2.62a1.69,1.69,0,0,0,.3.34l-.05,0,.06,0h0c-.16-.26-.33-.52-.53-.79-1.24-3.08-.52-12.78.63-22.65a24.38,24.38,0,0,0-16.52-25.93C479.19,565.06,457.86,557,449,549.43a66.2,66.2,0,0,1-5-16.84,115.38,115.38,0,0,1-1.39-20.28,115.26,115.26,0,0,0,.29,20.43A73.24,73.24,0,0,0,444.68,542.88Z" transform="translate(-110.56 -84.72)"/><path class="cls-1" d="M517.68,596.25c1.14,9.87,1.87,19.57.63,22.65-.2.27-.38.53-.54.79h0l.05,0-.05,0a1.43,1.43,0,0,0,.3-.34l2.33-2.62a8.44,8.44,0,0,1,1-.93c9.11-7.51,30-15.36,45.66-20.53a24.37,24.37,0,0,0,16.52-25.94c-.94-8.09-1.58-16-1.1-20.31.16-.42.37-.82.52-1.24a41.49,41.49,0,0,0,1.62-4.91,71.78,71.78,0,0,0,1.79-10.14,115.26,115.26,0,0,0,.29-20.43,115.37,115.37,0,0,1-1.38,20.28,66.61,66.61,0,0,1-5,16.84c-8.87,7.61-30.2,15.63-46.08,20.89A24.35,24.35,0,0,0,517.68,596.25Z" transform="translate(-110.56 -84.72)"/><path class="cls-1" d="M493.35,560.29c17.5,1.87,21.29,21.89,21.29,21.89s.06-.06,0,0,3.79-20,21.28-21.89c0,0,9.29-31.11-20.42-61.74l-.86-42-.87,42C484.06,529.18,493.35,560.29,493.35,560.29Z" transform="translate(-110.56 -84.72)"/><path class="cls-1" d="M750,184.29c-298.16,0-539.87,241.71-539.87,539.87S451.84,1264,750,1264s539.87-241.71,539.87-539.87S1048.16,184.29,750,184.29Zm0,141.84c219.83,0,398,178.2,398,398,0,4.31-.19,8.58-.32,12.86H352.29c-.14-4.28-.33-8.55-.33-12.86C352,504.33,530.17,326.13,750,326.13Zm0,796.06c-152.13,0-284.27-85.37-351.27-210.79h702.53C1034.27,1036.82,902.12,1122.19,750,1122.19Z" transform="translate(-110.56 -84.72)"/><text class="cls-2" transform="translate(211.1 773.53)">JAIN KHAKH<tspan class="cls-3" x="705.49" y="0">R</tspan><tspan x="784.39" y="0">A</tspan></text><path class="cls-1" d="M171.56,839.78a589.85,589.85,0,0,1-11.45-115.62c0-325.27,264.62-589.89,589.89-589.89s589.89,264.62,589.89,589.89a589.85,589.85,0,0,1-11.45,115.62h0c29.6,0,54.71-22.26,57.72-51.71a627.76,627.76,0,0,0,3.28-63.91c0-352.59-286.86-639.44-639.44-639.44S110.56,371.57,110.56,724.16a627.76,627.76,0,0,0,3.28,63.91c3,29.45,28.11,51.71,57.72,51.71Z" transform="translate(-110.56 -84.72)"/><path class="cls-1" d="M1283,938.43l7.44,71.61a49.75,49.75,0,0,1-7.61,32L1252,1090l-11.59-57.31a49.76,49.76,0,0,1,6.47-36.06Z" transform="translate(-110.56 -84.72)"/><path class="cls-1" d="M1231.19,1097.79c-.26-26.07-.13-67-.13-67l-39.75,50.39a56.91,56.91,0,0,0-12.23,35.36l.12,63.13,38.14-44.14A56.79,56.79,0,0,0,1231.19,1097.79Z" transform="translate(-110.56 -84.72)"/><path class="cls-1" d="M1091.78,1254.49l43.1-41.19a48.39,48.39,0,0,0,14.71-30.2l6.15-62.2-42,40.78a48.31,48.31,0,0,0-14.31,28.9Z" transform="translate(-110.56 -84.72)"/><path class="cls-1" d="M1063.8,1251.5l16.8-62.34-55.33,36.21a40.88,40.88,0,0,0-17,23.08l-16.78,59.22,53.55-31.58A40.89,40.89,0,0,0,1063.8,1251.5Z" transform="translate(-110.56 -84.72)"/><path class="cls-1" d="M961.35,1296.64l32.9-64.84-66.67,31.77a37.09,37.09,0,0,0-17.45,17.35l-27.41,56.64,59.06-23.15A37.1,37.1,0,0,0,961.35,1296.64Z" transform="translate(-110.56 -84.72)"/><path class="cls-1" d="M849,1335.91l52.4-64.69-76.61,20.4a22.72,22.72,0,0,0-12,7.93c-13.58,17.31-51.63,66.06-46.94,62.83s51.87-14.27,70.64-18.61A22.73,22.73,0,0,0,849,1335.91Z" transform="translate(-110.56 -84.72)"/><path class="cls-1" d="M855.09,1355.47l69.71,32.19-67.46,16.88a22.82,22.82,0,0,1-15.18-1.45L772,1370.35,840.22,1354A22.74,22.74,0,0,1,855.09,1355.47Z" transform="translate(-110.56 -84.72)"/><path class="cls-1" d="M886.29,1352.62l64.84,22.11a38.29,38.29,0,0,0,26.06-.59l61.53-23.59-66.37-20.76a38.3,38.3,0,0,0-24.43.61Z" transform="translate(-110.56 -84.72)"/><path class="cls-1" d="M998.44,1319.18l53.72-33.81a40.9,40.9,0,0,1,25.13-6.16l71.8,5.88-55.87,36.82a40.94,40.94,0,0,1-28,6.37Z" transform="translate(-110.56 -84.72)"/><path class="cls-1" d="M1102.68,1259.63l37.26-38.72a48.37,48.37,0,0,1,33.48-14.8l66.11-1.87-43.79,41a48.35,48.35,0,0,1-32,13.06Z" transform="translate(-110.56 -84.72)"/><path class="cls-1" d="M1188.51,1185c.13-1.65,24.42-29.91,40-47.92a56.82,56.82,0,0,1,32-18.52l60.51-11.92-39.78,46.27a56.92,56.92,0,0,1-30.92,18.48Z" transform="translate(-110.56 -84.72)"/><path class="cls-1" d="M1262.14,1098.26c1.43-1.82,20.81-32.09,33-51.12a55,55,0,0,1,26.71-21.75l58.22-22.28-30.41,51.71a55,55,0,0,1-30.08,24.34Z" transform="translate(-110.56 -84.72)"/><path class="cls-1" d="M1306.72,1016.79l2.43-59a45.67,45.67,0,0,1,11.63-28.63l51.72-57.66-3.74,71.64a45.65,45.65,0,0,1-15.16,31.67Z" transform="translate(-110.56 -84.72)"/><path class="cls-1" d="M217,938.43,209.59,1010a49.69,49.69,0,0,0,7.6,32L248,1090l11.59-57.31a49.72,49.72,0,0,0-6.47-36.06Z" transform="translate(-110.56 -84.72)"/><path class="cls-1" d="M268.8,1097.79c.26-26.07.14-67,.14-67l39.75,50.39a57,57,0,0,1,12.23,35.36l-.12,63.13-38.15-44.14A56.79,56.79,0,0,1,268.8,1097.79Z" transform="translate(-110.56 -84.72)"/><path class="cls-1" d="M408.22,1254.49l-43.1-41.19a48.28,48.28,0,0,1-14.71-30.2l-6.15-62.2,42,40.78a48.35,48.35,0,0,1,14.3,28.9Z" transform="translate(-110.56 -84.72)"/><path class="cls-1" d="M436.2,1251.5l-16.81-62.34,55.33,36.21a40.88,40.88,0,0,1,17,23.08l16.78,59.22-53.55-31.58A40.91,40.91,0,0,1,436.2,1251.5Z" transform="translate(-110.56 -84.72)"/><path class="cls-1" d="M538.64,1296.64l-32.89-64.84,66.66,31.77a37.16,37.16,0,0,1,17.46,17.35l27.41,56.64-59.07-23.15A37.13,37.13,0,0,1,538.64,1296.64Z" transform="translate(-110.56 -84.72)"/><path class="cls-1" d="M651.05,1335.91l-52.41-64.69,76.61,20.4a22.68,22.68,0,0,1,12,7.93c13.58,17.31,51.63,66.06,47,62.83s-51.87-14.27-70.64-18.61A22.73,22.73,0,0,1,651.05,1335.91Z" transform="translate(-110.56 -84.72)"/><path class="cls-1" d="M644.91,1355.47l-69.71,32.19,67.46,16.88a22.8,22.8,0,0,0,15.17-1.45L728,1370.35,659.77,1354A22.71,22.71,0,0,0,644.91,1355.47Z" transform="translate(-110.56 -84.72)"/><path class="cls-1" d="M613.71,1352.62l-64.85,22.11a38.29,38.29,0,0,1-26.06-.59l-61.53-23.59,66.38-20.76a38.27,38.27,0,0,1,24.42.61Z" transform="translate(-110.56 -84.72)"/><path class="cls-1" d="M501.55,1319.18l-53.71-33.81a40.9,40.9,0,0,0-25.13-6.16l-71.81,5.88,55.87,36.82a40.94,40.94,0,0,0,28,6.37Z" transform="translate(-110.56 -84.72)"/><path class="cls-1" d="M397.32,1259.63l-37.26-38.72a48.37,48.37,0,0,0-33.48-14.8l-66.12-1.87,43.8,41a48.33,48.33,0,0,0,32.05,13.06Z" transform="translate(-110.56 -84.72)"/><path class="cls-1" d="M311.49,1185c-.13-1.65-24.43-29.91-40-47.92a56.79,56.79,0,0,0-32-18.52L179,1106.63l39.78,46.27a57,57,0,0,0,30.92,18.48Z" transform="translate(-110.56 -84.72)"/><path class="cls-1" d="M237.86,1098.26c-1.43-1.82-20.81-32.09-33-51.12a55,55,0,0,0-26.7-21.75L120,1003.11l30.4,51.71a55.07,55.07,0,0,0,30.09,24.34Z" transform="translate(-110.56 -84.72)"/><path class="cls-1" d="M193.28,1016.79l-2.43-59a45.68,45.68,0,0,0-11.64-28.63L127.5,871.53l3.74,71.64a45.65,45.65,0,0,0,15.16,31.67Z" transform="translate(-110.56 -84.72)"/><path class="cls-4" d="M807.23,1358A57.23,57.23,0,1,1,750,1300.81,57.24,57.24,0,0,1,807.23,1358Z" transform="translate(-110.56 -84.72)"/><path class="cls-1" d="M590.07,1140.63a15.36,15.36,0,1,0-11.19,28.6,15.84,15.84,0,0,0,5.75,1.07,15.5,15.5,0,0,0,14.14-9.78A15.29,15.29,0,0,0,590.07,1140.63Z" transform="translate(-110.56 -84.72)"/><path class="cls-1" d="M666,1162.91a15.35,15.35,0,1,0-6,30.09,17.89,17.89,0,0,0,3.18.27,15.32,15.32,0,0,0,2.87-30.36Z" transform="translate(-110.56 -84.72)"/><path class="cls-1" d="M519.22,1105.39a15.35,15.35,0,1,0-16,26.19,14.92,14.92,0,0,0,8.11,2.28,15.4,15.4,0,0,0,7.91-28.47Z" transform="translate(-110.56 -84.72)"/><path class="cls-1" d="M744.67,1171.54a15.5,15.5,0,0,0-15.73,15,15.34,15.34,0,0,0,15,15.72.89.89,0,0,0,.52.11,15.43,15.43,0,0,0,.2-30.85Z" transform="translate(-110.56 -84.72)"/><path class="cls-1" d="M433.83,1059.74a15.38,15.38,0,0,0,23.05,20.36,15.38,15.38,0,0,0-23.05-20.36Z" transform="translate(-110.56 -84.72)"/><path class="cls-1" d="M336.1,929.09A15.38,15.38,0,0,0,330,950a15.55,15.55,0,0,0,20.85,6.14,15.38,15.38,0,1,0-14.72-27Z" transform="translate(-110.56 -84.72)"/><path class="cls-1" d="M379.22,998.73a15.4,15.4,0,0,0,9.81,27.35,15.41,15.41,0,0,0,11.83-25A15.34,15.34,0,0,0,379.22,998.73Z" transform="translate(-110.56 -84.72)"/><path class="cls-1" d="M1096.36,1017.9a15.39,15.39,0,0,0,1.45,21.7,15.41,15.41,0,0,0,21.6-1.34h.1a15.41,15.41,0,0,0-23.15-20.35Z" transform="translate(-110.56 -84.72)"/><path class="cls-1" d="M1164.61,949.07a15.42,15.42,0,0,0-16.13,26.29,16,16,0,0,0,8.22,2.28,15.19,15.19,0,0,0,12.94-7.41A15.44,15.44,0,0,0,1164.61,949.07Z" transform="translate(-110.56 -84.72)"/><path class="cls-1" d="M823.71,1166.65a15.39,15.39,0,0,0,2.46,30.61c.61,0,1.33-.12,2.05-.13h.1a15.41,15.41,0,0,0-4.61-30.48Z" transform="translate(-110.56 -84.72)"/><path class="cls-1" d="M900.66,1148.14a15.33,15.33,0,0,0,5,29.87,16.1,16.1,0,0,0,4.81-.76,15.36,15.36,0,1,0-9.83-29.11Z" transform="translate(-110.56 -84.72)"/><path class="cls-1" d="M973.18,1116.37a15.41,15.41,0,0,0,7.57,28.92,15,15,0,0,0,7.15-1.92,15.38,15.38,0,1,0-14.72-27Z" transform="translate(-110.56 -84.72)"/><path class="cls-1" d="M1039.13,1072.46a15.37,15.37,0,1,0,21.54,2.46A15.38,15.38,0,0,0,1039.13,1072.46Z" transform="translate(-110.56 -84.72)"/><text class="cls-5" transform="translate(279.03 398.78) rotate(-54.5)">J</text><text class="cls-5" transform="matrix(0.66, -0.75, 0.75, 0.66, 297.29, 372.47)">A</text><text class="cls-5" transform="translate(337.91 328.33) rotate(-42.77)">I</text><text class="cls-5" transform="translate(356.99 309.94) rotate(-37.06)">N</text><text class="cls-5" transform="translate(405.83 274.51) rotate(-31.38)"> </text><text class="cls-5" transform="matrix(0.9, -0.44, 0.44, 0.9, 427.69, 260.75)">K</text><text class="cls-5" transform="translate(475.9 237.27) rotate(-18.44)">H</text><text class="cls-5" transform="translate(534.17 218.32) rotate(-10.4)">A</text><text class="cls-5" transform="matrix(1, -0.05, 0.05, 1, 592.95, 208.11)">K</text><text class="cls-5" transform="translate(646.51 205.48) rotate(4.55)">H</text><text class="cls-5" transform="translate(707.6 210.89) rotate(12.32)">R</text><text class="cls-5" transform="translate(761.56 222.88) rotate(19.91)">A</text><text class="cls-5" transform="matrix(0.87, 0.48, -0.48, 0.87, 813.75, 240.76)">W</text><text class="cls-5" transform="translate(884.68 281.36) rotate(38.01)">A</text><text class="cls-5" transform="translate(931.27 318.75) rotate(44.97)">L</text><text class="cls-5" transform="translate(963.23 350.5) rotate(51.78)">A</text></svg>